$MeshFormat
4.1 0 8
$EndMeshFormat
$PhysicalNames
3
2 1 "lijeva"
2 2 "desna"
3 1 "greda"
$EndPhysicalNames
$Entities
8 12 6 1
1 0 0 0.2 0 
2 0 0 0 0 
3 0 0.3 0.2 0 
4 0 0.3 0 0 
5 5 0 0.2 0 
6 5 0 0 0 
7 5 0.3 0.2 0 
8 5 0.3 0 0 
1 -1e-07 -1e-07 -1.000000000028756e-07 1e-07 1e-07 0.2000001 0 2 2 -1 
2 -1e-07 -1.000000000028756e-07 0.1999999 1e-07 0.3000001 0.2000001 0 2 1 -3 
3 -1e-07 0.2999999 -1.000000000028756e-07 1e-07 0.3000001 0.2000001 0 2 4 -3 
4 -1e-07 -1.000000000028756e-07 -1e-07 1e-07 0.3000001 1e-07 0 2 2 -4 
5 4.9999999 -1e-07 -1.000000000028756e-07 5.0000001 1e-07 0.2000001 0 2 6 -5 
6 4.9999999 -1.000000000028756e-07 0.1999999 5.0000001 0.3000001 0.2000001 0 2 5 -7 
7 4.9999999 0.2999999 -1.000000000028756e-07 5.0000001 0.3000001 0.2000001 0 2 8 -7 
8 4.9999999 -1.000000000028756e-07 -1e-07 5.0000001 0.3000001 1e-07 0 2 6 -8 
9 -9.999999983634211e-08 -1e-07 -1e-07 5.0000001 1e-07 1e-07 0 2 2 -6 
10 -9.999999983634211e-08 -1e-07 0.1999999 5.0000001 1e-07 0.2000001 0 2 1 -5 
11 -9.999999983634211e-08 0.2999999 -1e-07 5.0000001 0.3000001 1e-07 0 2 4 -8 
12 -9.999999983634211e-08 0.2999999 0.1999999 5.0000001 0.3000001 0.2000001 0 2 3 -7 
1 -1e-07 -1.000000000028756e-07 -1.000000000028756e-07 1e-07 0.3000001 0.2000001 1 1 4 -1 4 3 -2 
2 4.9999999 -1.000000000028756e-07 -1.000000000028756e-07 5.0000001 0.3000001 0.2000001 1 2 4 -5 8 7 -6 
3 -9.999999983634211e-08 -1e-07 -1.000000000028756e-07 5.0000001 1e-07 0.2000001 0 4 -9 1 10 -5 
4 -9.999999983634211e-08 0.2999999 -1.000000000028756e-07 5.0000001 0.3000001 0.2000001 0 4 -11 3 12 -7 
5 -9.999999983634211e-08 -1.000000000028756e-07 -1e-07 5.0000001 0.3000001 1e-07 0 4 -4 9 8 -11 
6 -9.999999983634211e-08 -1.000000000028756e-07 0.1999999 5.0000001 0.3000001 0.2000001 0 4 -2 10 6 -12 
1 -9.999999983634211e-08 -1.000000000028756e-07 -1.000000000028756e-07 5.0000001 0.3000001 0.2000001 1 1 6 -1 2 -3 4 -5 6 
$EndEntities
$Nodes
27 679 1 679
0 1 0 1
1
0 0 0.2
0 2 0 1
2
0 0 0
0 3 0 1
3
0 0.3 0.2
0 4 0 1
4
0 0.3 0
0 5 0 1
5
5 0 0.2
0 6 0 1
6
5 0 0
0 7 0 1
7
5 0.3 0.2
0 8 0 1
8
5 0.3 0
1 1 0 1
9
0 0 0.1000000000000001
1 2 0 2
10
11
0 0.1000000000000001 0.2
0 0.2000000000000003 0.2
1 3 0 1
12
0 0.3 0.1000000000000001
1 4 0 2
13
14
0 0.1000000000000001 0
0 0.2000000000000003 0
1 5 0 1
15
5 0 0.1000000000000001
1 6 0 2
16
17
5 0.1000000000000001 0.2
5 0.2000000000000003 0.2
1 7 0 1
18
5 0.3 0.1000000000000001
1 8 0 2
19
20
5 0.1000000000000001 0
5 0.2000000000000003 0
1 9 0 49
21
22
23
24
25
26
27
28
29
30
31
32
33
34
35
36
37
38
39
40
41
42
43
44
45
46
47
48
49
50
51
52
53
54
55
56
57
58
59
60
61
62
63
64
65
66
67
68
69
0.1 0 0
0.2 0 0
0.3 0 0
0.4 0 0
0.5 0 0
0.6 0 0
0.7 0 0
0.8 0 0
0.9 0 0
1 0 0
1.1 0 0
1.2 0 0
1.3 0 0
1.4 0 0
1.5 0 0
1.6 0 0
1.7 0 0
1.8 0 0
1.9 0 0
2 0 0
2.1 0 0
2.2 0 0
2.3 0 0
2.4 0 0
2.5 0 0
2.6 0 0
2.7 0 0
2.8 0 0
2.9 0 0
3 0 0
3.1 0 0
3.2 0 0
3.3 0 0
3.4 0 0
3.5 0 0
3.6 0 0
3.7 0 0
3.8 0 0
3.9 0 0
4 0 0
4.1 0 0
4.2 0 0
4.3 0 0
4.4 0 0
4.5 0 0
4.6 0 0
4.7 0 0
4.8 0 0
4.9 0 0
1 10 0 49
70
71
72
73
74
75
76
77
78
79
80
81
82
83
84
85
86
87
88
89
90
91
92
93
94
95
96
97
98
99
100
101
102
103
104
105
106
107
108
109
110
111
112
113
114
115
116
117
118
0.1 0 0.2
0.2 0 0.2
0.3 0 0.2
0.4 0 0.2
0.5 0 0.2
0.6 0 0.2
0.7 0 0.2
0.8 0 0.2
0.9 0 0.2
1 0 0.2
1.1 0 0.2
1.2 0 0.2
1.3 0 0.2
1.4 0 0.2
1.5 0 0.2
1.6 0 0.2
1.7 0 0.2
1.8 0 0.2
1.9 0 0.2
2 0 0.2
2.1 0 0.2
2.2 0 0.2
2.3 0 0.2
2.4 0 0.2
2.5 0 0.2
2.6 0 0.2
2.7 0 0.2
2.8 0 0.2
2.9 0 0.2
3 0 0.2
3.1 0 0.2
3.2 0 0.2
3.3 0 0.2
3.4 0 0.2
3.5 0 0.2
3.6 0 0.2
3.7 0 0.2
3.8 0 0.2
3.9 0 0.2
4 0 0.2
4.1 0 0.2
4.2 0 0.2
4.3 0 0.2
4.4 0 0.2
4.5 0 0.2
4.6 0 0.2
4.7 0 0.2
4.8 0 0.2
4.9 0 0.2
1 11 0 49
119
120
121
122
123
124
125
126
127
128
129
130
131
132
133
134
135
136
137
138
139
140
141
142
143
144
145
146
147
148
149
150
151
152
153
154
155
156
157
158
159
160
161
162
163
164
165
166
167
0.1 0.3 0
0.2 0.3 0
0.3 0.3 0
0.4 0.3 0
0.5 0.3 0
0.6 0.3 0
0.7 0.3 0
0.8 0.3 0
0.9 0.3 0
1 0.3 0
1.1 0.3 0
1.2 0.3 0
1.3 0.3 0
1.4 0.3 0
1.5 0.3 0
1.6 0.3 0
1.7 0.3 0
1.8 0.3 0
1.9 0.3 0
2 0.3 0
2.1 0.3 0
2.2 0.3 0
2.3 0.3 0
2.4 0.3 0
2.5 0.3 0
2.6 0.3 0
2.7 0.3 0
2.8 0.3 0
2.9 0.3 0
3 0.3 0
3.1 0.3 0
3.2 0.3 0
3.3 0.3 0
3.4 0.3 0
3.5 0.3 0
3.6 0.3 0
3.7 0.3 0
3.8 0.3 0
3.9 0.3 0
4 0.3 0
4.1 0.3 0
4.2 0.3 0
4.3 0.3 0
4.4 0.3 0
4.5 0.3 0
4.6 0.3 0
4.7 0.3 0
4.8 0.3 0
4.9 0.3 0
1 12 0 49
168
169
170
171
172
173
174
175
176
177
178
179
180
181
182
183
184
185
186
187
188
189
190
191
192
193
194
195
196
197
198
199
200
201
202
203
204
205
206
207
208
209
210
211
212
213
214
215
216
0.1 0.3 0.2
0.2 0.3 0.2
0.3 0.3 0.2
0.4 0.3 0.2
0.5 0.3 0.2
0.6 0.3 0.2
0.7 0.3 0.2
0.8 0.3 0.2
0.9 0.3 0.2
1 0.3 0.2
1.1 0.3 0.2
1.2 0.3 0.2
1.3 0.3 0.2
1.4 0.3 0.2
1.5 0.3 0.2
1.6 0.3 0.2
1.7 0.3 0.2
1.8 0.3 0.2
1.9 0.3 0.2
2 0.3 0.2
2.1 0.3 0.2
2.2 0.3 0.2
2.3 0.3 0.2
2.4 0.3 0.2
2.5 0.3 0.2
2.6 0.3 0.2
2.7 0.3 0.2
2.8 0.3 0.2
2.9 0.3 0.2
3 0.3 0.2
3.1 0.3 0.2
3.2 0.3 0.2
3.3 0.3 0.2
3.4 0.3 0.2
3.5 0.3 0.2
3.6 0.3 0.2
3.7 0.3 0.2
3.8 0.3 0.2
3.9 0.3 0.2
4 0.3 0.2
4.1 0.3 0.2
4.2 0.3 0.2
4.3 0.3 0.2
4.4 0.3 0.2
4.5 0.3 0.2
4.6 0.3 0.2
4.7 0.3 0.2
4.8 0.3 0.2
4.9 0.3 0.2
2 1 0 5
217
218
219
220
221
0 0.1500000000000002 0.09055774141409186
0 0.06574516661590254 0.1271968004030468
0 0.2342548333840976 0.1271968004030468
0 0.2408335068224052 0.05937153146343534
0 0.05916649317759486 0.05937153146343524
2 2 0 5
222
223
224
225
226
5 0.1500000000000002 0.1094422585859081
5 0.06574516661590253 0.07280319959695325
5 0.2342548333840976 0.07280319959695322
5 0.05916649317759488 0.1406284685365648
5 0.2408335068224053 0.1406284685365647
2 3 0 52
227
228
229
230
231
232
233
234
235
236
237
238
239
240
241
242
243
244
245
246
247
248
249
250
251
252
253
254
255
256
257
258
259
260
261
262
263
264
265
266
267
268
269
270
271
272
273
274
275
276
277
278
4.349826564894106 0 0.09647255280906399
4.850000000000003 0 0.08660254037844355
2.849958164914741 0 0.1013732693168533
3.350123882218493 0 0.1047673051179487
3.850123882218491 0 0.1047673051179473
2.350123882218495 0 0.09523269488205229
4.150001335436009 0 0.1047120932750513
4.64987611778151 0 0.1044981118082393
1.150173435105892 0 0.1035274471909376
1.649999999999999 0 0.1013917155348732
2.15 0 0.1036247043112324
2.649999999999999 0 0.1045527348213613
3.15024280914825 0 0.09989293889428504
3.650301378267613 0 0.09991876359950994
1.45 0 0.104552734821361
1.949905999985262 0 0.09524587075206625
0.5500298822037573 0 0.09546044104865271
0.8497571908517508 0 0.09989293889428416
0.25 0 0.104552734821361
4.549989465797746 0 0.09495971122530872
3.950266073639254 0 0.09898104459101148
3.450040416406012 0 0.09627713783709374
1.75004183508526 0 0.09847883558893827
2.749995019632708 0 0.09778212059757824
3.049987070765723 0 0.101674099462154
4.449978098891886 0 0.1028078770388224
1.050020647036416 0 0.09781015361888143
1.350123882218494 0 0.09474978574276308
0.949962972981361 0 0.09961718208552758
0.3500298822037573 0 0.09625889206356904
0.15 0 0.08660254037844385
0.6498786587852263 0 0.1052513346543469
2.55 0 0.09793221167012245
2.450014747883154 0 0.1021096544846118
1.549999999999999 0 0.0977843165759132
2.949990872613411 0 0.1005078947965012
0.4501075190150429 0 0.1019818333316731
1.850094194093972 0 0.1022205682398621
3.550056965778937 0 0.09936598357276727
4.249971316721686 0 0.1001974410140192
2.049984333330877 0 0.09981176251054977
2.250020647036416 0 0.09980956653221409
0.7495404045121655 0 0.09750552410806662
1.250049552887398 0 0.09971287215561676
4.749979352963585 0 0.09851677536444714
3.750466870502486 0 0.09745097591387665
3.250459897988278 0 0.09744790154420972
4.050452565732874 0 0.09733079139208983
0.06574516661590248 0 0.1266317716836685
4.934254833384099 0 0.1266317716836728
4.942018786627633 0 0.05779820648068686
0.05798121337236099 0 0.05779820648068534
2 4 0 52
279
280
281
282
283
284
285
286
287
288
289
290
291
292
293
294
295
296
297
298
299
300
301
302
303
304
305
306
307
308
309
310
311
312
313
314
315
316
317
318
319
320
321
322
323
324
325
326
327
328
329
330
4.349826564894106 0.3 0.09647255280906399
4.850000000000003 0.3 0.08660254037844355
2.849958164914741 0.3 0.1013732693168533
3.350123882218493 0.3 0.1047673051179487
3.850123882218491 0.3 0.1047673051179473
2.350123882218495 0.3 0.09523269488205229
4.150001335436009 0.3 0.1047120932750513
4.64987611778151 0.3 0.1044981118082393
1.24987478234549 0.3 0.0952332837118284
1.750346870211785 0.3 0.1038278456061593
2.15 0.3 0.1036247043112324
2.649999999999999 0.3 0.1045527348213613
3.15024280914825 0.3 0.09989293889428504
3.650301378267613 0.3 0.09991876359950994
1.05 0.3 0.09860828446512716
1.550242809148249 0.3 0.09989293889428427
1.95 0.3 0.09528731789517281
0.5500298822037573 0.3 0.09546044104865271
0.8497571908517508 0.3 0.0998929388942842
0.25 0.3 0.104552734821361
4.549989465797746 0.3 0.09495971122530872
3.950266073639254 0.3 0.09898104459101148
3.450040416406012 0.3 0.09627713783709374
2.749995019632708 0.3 0.09778212059757824
3.049987070765723 0.3 0.101674099462154
1.449795041588535 0.3 0.1017956627443582
4.449978098891886 0.3 0.1028078770388224
0.949959531808625 0.3 0.09975020389323522
0.3500298822037573 0.3 0.09625889206356904
0.15 0.3 0.08660254037844385
1.149985093136368 0.3 0.1021902094399427
0.6498786587852263 0.3 0.1052513346543469
2.55 0.3 0.09793221167012245
2.450014747883154 0.3 0.1021096544846118
2.949990872613411 0.3 0.1005078947965012
0.4501075190150429 0.3 0.1019818333316731
3.550056965778937 0.3 0.09936598357276727
4.249971316721686 0.3 0.1001974410140192
2.05 0.3 0.09981867036773419
2.250020647036416 0.3 0.09980956653221409
0.7495404045121655 0.3 0.09750552410806662
1.650098279893339 0.3 0.1006201307500739
1.850057811701964 0.3 0.09985252725022201
4.749979352963585 0.3 0.09851677536444714
3.750466870502486 0.3 0.09745097591387665
3.250459897988278 0.3 0.09744790154420972
1.349944970655671 0.3 0.09950482440936442
4.050452565732874 0.3 0.09733079139208983
0.06574516661590248 0.3 0.1266317716836685
4.934254833384099 0.3 0.1266317716836728
4.942018786627633 0.3 0.05779820648068686
0.05798121337236099 0.3 0.05779820648068534
2 5 0 149
331
332
333
334
335
336
337
338
339
340
341
342
343
344
345
346
347
348
349
350
351
352
353
354
355
356
357
358
359
360
361
362
363
364
365
366
367
368
369
370
371
372
373
374
375
376
377
378
379
380
381
382
383
384
385
386
387
388
389
390
391
392
393
394
395
396
397
398
399
400
401
402
403
404
405
406
407
408
409
410
411
412
413
414
415
416
417
418
419
420
421
422
423
424
425
426
427
428
429
430
431
432
433
434
435
436
437
438
439
440
441
442
443
444
445
446
447
448
449
450
451
452
453
454
455
456
457
458
459
460
461
462
463
464
465
466
467
468
469
470
471
472
473
474
475
476
477
478
479
4.149999999999992 0.08660254037844355 0
4.349999999999998 0.08269207045110573 0
4.650000000000006 0.08660254037844355 0
2.252831216351296 0.08496793685588822 0
2.75 0.08660254037844355 0
3.249999999999998 0.2133974596215564 0
3.750000000000003 0.2133974596215564 0
3.950000000000001 0.08660254037844374 0
4.84953999120938 0.07654974447232302 0
1.25 0.2133974596215563 0
1.850736988846131 0.2158252693814636 0
1.05 0.2133974596215562 0
1.652831216351295 0.08496793685588856 0
1.45 0.08660254037844384 0
0.7500000000000002 0.08660254037844384 0
0.25 0.2133974596215562 0
0.45 0.2133974596215562 0
2.45073698884613 0.2158252693814634 0
3.450000000000002 0.213397459621556 0
2.049999999999999 0.08660254037844393 0
2.949999999999998 0.08660254037844393 0
0.09382000924160658 0.1500000000000001 0
4.547977702606217 0.2233106073238585 0
3.349999999999997 0.08660254037844374 0
3.649999999999999 0.08660254037844374 0
3.050000000000002 0.213397459621556 0
2.152022297393783 0.2233106073238607 0
2.649999999999999 0.2133974596215563 0
4.249263011153871 0.2158252693814642 0
1.15 0.08660254037844374 0
0.9499999999999998 0.08660254037844384 0
0.6499999999999999 0.2133974596215562 0
0.35 0.08660254037844384 0
0.55 0.08660254037844384 0
0.85 0.2133974596215562 0
2.550000000000001 0.08660254037844393 0
1.552022297393783 0.2233106073238609 0
2.850000000000002 0.2133974596215563 0
3.150000000000001 0.08660254037844374 0
4.749999999999997 0.2133974596215564 0
4.050000000000005 0.2133974596215564 0
1.850000000000001 0.08660254037844374 0
4.547168783648705 0.0811004233964048 0
3.950000000000001 0.2133974596215563 0
4.249999999999992 0.08440821291731102 0
4.849539991209378 0.2234502555276761 0
3.649999999999999 0.2133974596215563 0
4.446696914256822 0.08339917237098911 0
4.393787053006879 0.1565493872631598 0
3.450000000000003 0.08660254037844393 0
3.350000000000001 0.2133974596215553 0
2.750000000000002 0.2133974596215555 0
3.850000000000001 0.08660254037844356 0
3.05 0.08660254037844191 0
1.750471869391882 0.08241963653067935 0
1.706212946993123 0.1567654423572418 0
2.45 0.08660254037844395 0
1.450122831474355 0.2168184575088303 0
3.750000000000004 0.08660254037843293 0
2.050122831474354 0.2168184575088301 0
2.350471869391883 0.08241963653067946 0
2.306212946993124 0.1567654423572419 0
1.15 0.2133974596215563 0
1.35 0.08660254037844398 0
1.05 0.08660254037844359 0
1.25 0.08660254037844331 0
2.153303085743179 0.08082798947598094 0
0.6500000000000001 0.08660254037844396 0
2.950000000000001 0.2133974596215582 0
0.2500000000000001 0.08660254037844384 0
0.4500000000000001 0.08660254037844384 0
0.95 0.2133974596215566 0
2.549999999999998 0.2133974596215542 0
0.55 0.2133974596215563 0
0.3500000000000001 0.2133974596215563 0
0.7500000000000002 0.2133974596215568 0
4.649877168525644 0.2168184575088317 0
1.350005329006766 0.2155593695636401 0
0.8500000000000001 0.08660254037844378 0
2.650000000000001 0.08660254037844325 0
1.949999999999998 0.0866025403784422 0
3.550000000000001 0.08660254037844199 0
1.950052224266306 0.216571595260585 0
3.249999999999996 0.08660254037843317 0
2.849999999999998 0.08660254037844267 0
3.850000000000002 0.2133974596215573 0
1.553303085743179 0.08082798947598108 0
4.150000000000001 0.2133974596215567 0
4.749980042656249 0.08415291186341532 0
3.550000000000002 0.2133974596215605 0
3.150000000000003 0.2133974596215653 0
4.049999999999997 0.08660254037843748 0
0.1529245620067722 0.0766346035225553 0
0.1529245620067722 0.2233653964774447 0
4.913677638545984 0.1500000000000001 0
4.348841677360124 0.2264961995038427 0
1.751158322639876 0.2265322086861912 0
2.351158322639876 0.2265322086861912 0
2.202394924413564 0.1554553758664261 0
1.602394924413563 0.1554553758664265 0
4.497605075586437 0.1552033115899985 0
4.000000000000006 0.1499999999999981 0
3.400000000000001 0.1499999999999983 0
3.700000000000001 0.1499999999999992 0
3 0.1500000000000001 0
1.999999999999994 0.1499999999999982 0
4.800000000000003 0.15 0
2.7 0.15 0
3.900000000000003 0.15 0
3.500000000000001 0.1499999999999994 0
2.101307189837479 0.1521691617589233 0
3.6 0.1500000000000002 0
1.1 0.15 0
1.2 0.1499999999999999 0
1.899999999999999 0.149999999999999 0
1.50130718983748 0.1521691617589239 0
0.7000000000000002 0.1500000000000002 0
3.299999999999997 0.1499999999999999 0
1 0.1500000000000001 0
0.6 0.1500000000000001 0
0.3000000000000002 0.1500000000000002 0
0.4999999999999999 0.15 0
0.8000000000000003 0.1500000000000002 0
0.9 0.1500000000000001 0
1.299999999999999 0.1499999999999998 0
0.4 0.15 0
1.4002392250531 0.1512920115980469 0
3.800000000000003 0.1499999999999996 0
3.100000000000003 0.1500000000000019 0
3.199999999999999 0.1500000000000001 0
2.600000000000001 0.1499999999999995 0
4.598771455061168 0.1521725566995906 0
2.800000000000002 0.1499999999999997 0
2.9 0.1500000000000002 0
2.499999999999998 0.1499999999999973 0
4.699771444373845 0.1505239876786396 0
4.100000000000001 0.1500000000000028 0
4.199999999999993 0.1499999999999996 0
4.448035251426608 0.2269265842801433 0
4.299999999999991 0.1497422611928609 0
2.251964748573391 0.22701060570562 0
1.651964748573391 0.22701060570562 0
2.400000000000004 0.149742261192857 0
1.800000000000002 0.1497422611928553 0
0.2003719731865545 0.15 0
0.07320508075688782 0.07320508075688784 0
0.07320508075688768 0.2267949192431124 0
4.927304073544492 0.07269592645550066 0
4.927304073544493 0.2273040735445001 0
2 6 0 149
480
481
482
483
484
485
486
487
488
489
490
491
492
493
494
495
496
497
498
499
500
501
502
503
504
505
506
507
508
509
510
511
512
513
514
515
516
517
518
519
520
521
522
523
524
525
526
527
528
529
530
531
532
533
534
535
536
537
538
539
540
541
542
543
544
545
546
547
548
549
550
551
552
553
554
555
556
557
558
559
560
561
562
563
564
565
566
567
568
569
570
571
572
573
574
575
576
577
578
579
580
581
582
583
584
585
586
587
588
589
590
591
592
593
594
595
596
597
598
599
600
601
602
603
604
605
606
607
608
609
610
611
612
613
614
615
616
617
618
619
620
621
622
623
624
625
626
627
628
4.149999999999992 0.08660254037844355 0.2
4.349999999999998 0.08269207045110573 0.2
4.650000000000006 0.08660254037844355 0.2
2.25 0.2133974596215564 0.2
2.750736988846131 0.215825269381464 0.2
3.249999999999999 0.2173079295488948 0.2
3.750000000000003 0.2133974596215564 0.2
3.950000000000001 0.08660254037844374 0.2
1.247168783648704 0.08496793685588844 0.2
1.750000000000001 0.08660254037844374 0.2
1.049263011153869 0.2158252693814637 0.2
4.849539991209377 0.2234502555276752 0.2
1.45 0.08269207045110523 0.2
1.95 0.08660254037844384 0.2
0.35 0.08660254037844384 0.2
0.549263011153869 0.2158252693814636 0.2
0.7471687836487033 0.08496793685588856 0.2
2.452022297393783 0.2233106073238603 0.2
2.949999999999998 0.213397459621556 0.2
3.450000000000002 0.213397459621556 0.2
0.1504600087906214 0.07654974447232496 0.2
4.547977702606217 0.2233106073238586 0.2
3.350736988846129 0.08417473061853589 0.2
3.649999999999999 0.08660254037844374 0.2
3.052022297393783 0.07668939267613935 0.2
1.65073698884613 0.2158252693814638 0.2
4.249263011153871 0.2158252693814642 0.2
2.552831216351296 0.08496793685588858 0.2
2.150000000000001 0.08660254037844374 0.2
1.344337567297407 0.2288675134594806 0.2
0.9499999999999998 0.08660254037844384 0.2
2.049999999999999 0.213397459621556 0.2
0.25 0.2133974596215562 0.2
1.850000000000001 0.2133974596215563 0.2
2.350000000000001 0.08660254037844374 0.2
0.8479777026062165 0.2233106073238613 0.2
2.850000000000002 0.08660254037844374 0.2
4.050000000000005 0.2133974596215564 0.2
4.849539991209378 0.0765497444723241 0.2
0.55 0.08660254037844384 0.2
4.547168783648705 0.08110042339640479 0.2
3.950000000000001 0.2133974596215563 0.2
4.249999999999992 0.08440821291731102 0.2
3.649999999999999 0.2133974596215563 0.2
4.749980042656241 0.2158470881365808 0.2
2.750000000000002 0.08660254037844441 0.2
4.446696914256822 0.08339917237098911 0.2
4.393787053006879 0.1565493872631598 0.2
3.450000000000003 0.08660254037844393 0.2
3.350000000000001 0.2155917870826936 0.2
3.052831216351295 0.2188995766035937 0.2
3.850000000000001 0.08660254037844356 0.2
1.749999999999998 0.2133974596215546 0.2
3.750000000000004 0.08660254037843293 0.2
1.650000000000001 0.08660254037844445 0.2
1.55 0.08204032546321577 0.2
1.500000000000001 0.1731378288125935 0.2
2.650471869391883 0.08241963653067971 0.2
2.606212946993123 0.1567654423572417 0.2
2.050000000000001 0.08660254037844414 0.2
1.149528130608118 0.08241963653067955 0.2
1.193787053006877 0.1567654423572422 0.2
1.049979528087608 0.08439639345317515 0.2
2.250000000000001 0.08660254037844359 0.2
2.15 0.2133974596215565 0.2
0.6495281306081172 0.08241963653067944 0.2
0.6937870530068764 0.1567654423572427 0.2
2.950122831474356 0.08318154249116826 0.2
0.45 0.2133974596215562 0.2
0.2500199573437553 0.08415291186341997 0.2
0.4500000000000001 0.08660254037844384 0.2
0.9497653668163337 0.2183933030718956 0.2
1.346696914256821 0.08013328802023402 0.2
0.1504600087906214 0.2234502555276751 0.2
0.3500000000000001 0.2133974596215563 0.2
0.8466969142568204 0.08082798947598144 0.2
2.350122831474355 0.2168184575088301 0.2
2.453303085743179 0.0808279894759808 0.2
1.85 0.08660254037844149 0.2
3.550000000000001 0.08660254037844199 0.2
1.949999999999999 0.2133974596215583 0.2
2.849999999999997 0.2133974596215575 0.2
3.850000000000002 0.2133974596215573 0.2
4.150000000000001 0.2133974596215567 0.2
4.749980042656249 0.08415291186341489 0.2
3.153303085743178 0.216600827629009 0.2
3.206212946993121 0.1434506127368371 0.2
3.550000000000002 0.2133974596215605 0.2
4.649756874436007 0.2203942379228788 0.2
4.049999999999997 0.08660254037843748 0.2
0.08632236145401681 0.1500000000000001 0.2
4.913677638545982 0.1500000000000002 0.2
4.348841677360124 0.2264961995038427 0.2
3.251158322639874 0.0735038004961549 0.2
2.651158322639876 0.2265322086861911 0.2
1.428867513459481 0.230349520692986 0.2
1.148841677360124 0.2265322086861914 0.2
0.6488416773601242 0.2265322086861917 0.2
0.7976050755864361 0.155455375866427 0.2
2.502394924413564 0.1554553758664259 0.2
1.296998386368301 0.1562227868452146 0.2
1.570147397769226 0.2277410718773829 0.2
3.102394924413562 0.1447966884099984 0.2
4.497605075586437 0.1552033115899985 0.2
4.80077245543472 0.1499999999999994 0.2
4.000000000000006 0.1499999999999981 0.2
3.400000000000003 0.1499999999999956 0.2
3.001228544938832 0.1478274433004093 0.2
3.700000000000001 0.1499999999999992 0.2
2.299999999999998 0.1499999999999995 0.2
2.1 0.1499999999999999 0.2
3.900000000000003 0.15 0.2
3.500000000000001 0.1499999999999991 0.2
3.6 0.1500000000000001 0.2
1.799999999999999 0.1499999999999995 0.2
0.9998346510096354 0.1508266279129725 0.2
0.3000000000000002 0.1500000000000002 0.2
0.5 0.15 0.2
0.2 0.1499999999999999 0.2
0.8986466183792403 0.1525694073382636 0.2
2.2 0.1499999999999999 0.2
0.4 0.15 0.2
1.899999999999999 0.15 0.2
3.800000000000003 0.1499999999999996 0.2
1.999999999999999 0.1500000000000004 0.2
2.40130718983748 0.1521691617589234 0.2
2.799999999999995 0.1500000000000011 0.2
2.900114912960303 0.1495243576031579 0.2
4.599108147175878 0.1519775143585235 0.2
1.699999999999998 0.1500000000000003 0.2
4.699952090757037 0.1510683681737893 0.2
4.100000000000001 0.1500000000000028 0.2
4.199999999999993 0.1499999999999996 0.2
4.448035251426608 0.2269265842801433 0.2
4.299999999999991 0.1497422611928609 0.2
3.15196474857339 0.07307341571985494 0.2
3.299999999999995 0.1502577388071404 0.2
2.551964748573391 0.2270106057056198 0.2
1.601268488011137 0.1519831181386759 0.2
1.247327447338785 0.2280646585580215 0.2
0.7480352514266088 0.2270106057056204 0.2
0.6 0.1497422611928566 0.2
2.700000000000003 0.149742261192857 0.2
1.100000000000001 0.1497422611928568 0.2
1.397989576128645 0.1529583351192698 0.2
0.07269592645550577 0.07269592645550577 0.2
4.927304073544485 0.0726959264555071 0.2
0.0726959264555056 0.2273040735444945 0.2
4.927304073544486 0.2273040735444938 0.2
3 1 0 51
629
630
631
632
633
634
635
636
637
638
639
640
641
642
643
644
645
646
647
648
649
650
651
652
653
654
655
656
657
658
659
660
661
662
663
664
665
666
667
668
669
670
671
672
673
674
675
676
677
678
679
4.250036157923978 0.1639000323315934 0.1
2.750000000000001 0.1619818514459067 0.1000156070137263
1.849968722393872 0.16200651931613 0.09998436119693643
0.5500312776061284 0.1620065193161311 0.1000156388030642
3.349968722393871 0.137993480683871 0.1000156388030643
4.050000000000004 0.1380181485540849 0.09999999999999999
3.55 0.1619818514459115 0.1
0.3500000000000001 0.161981851445908 0.1
3.850000000000003 0.1619818514459089 0.1
1.05 0.1380181485540922 0.1000926365468503
2.95 0.1380181485540922 0.09994337497891791
2.049999999999999 0.1619818514459076 0.09999999999999856
0.8500000000000001 0.1380181485540921 0.09983666961966892
2.450030611960129 0.1379940056623154 0.09983455818147405
4.398195025012354 0.1040276209691091 0.1
1.24866975007235 0.1369690135133574 0.1004195342320521
1.651188557132024 0.137080763098018 0.09957754662182479
3.152011236380773 0.1635680635692237 0.1008178228896889
4.649649131346324 0.1647239840932366 0.10000744352553
2.251188557132025 0.1370807630980174 0.09957754662182493
1.450885714174195 0.1387672120794668 0.1006936298249772
0.6978179955737751 0.1040189469952766 0.1016985572305207
2.602182004426225 0.1040189469952758 0.1016985572305207
3.743511105502797 0.1329005188131294 0.09999999999999998
1.349408110496802 0.1790714213451094 0.1029340854076327
0.1469749517568312 0.1323320565750706 0.09996551956848386
4.542516976721034 0.1316158471333638 0.09999999999999999
1.551422521515465 0.182577615321003 0.1018270560755739
4.857225046990351 0.1654329281076245 0.09999999999999978
4.753559261529912 0.1293068478935768 0.1000000000000001
1.149554379058428 0.1798023204968131 0.1026383961076704
2.350414753815862 0.1804394925061389 0.09799605733467404
0.4500202855075076 0.1243191071524356 0.1
1.949979714492492 0.1243191071524342 0.0999999999999997
0.9499987110171162 0.1769964460429175 0.1009718010754499
0.2442120687330556 0.1764325072234923 0.1
3.055062470622776 0.1186690923334455 0.1017941136837262
1.746158264860866 0.1848301474844886 0.09766696941337955
3.246355034642929 0.114845278999076 0.1023031284078523
2.15462427081239 0.1821179316832275 0.09824046489121371
4.456020151590074 0.1928166878654066 0.1
4.154009664998491 0.1201088810211344 0.09999999999999999
3.453645873420984 0.1194554928840481 0.1
2.85366243483032 0.1805664566099697 0.1000000000000003
3.946337570946643 0.1194335297854965 0.09999999999999999
0.7585388724367376 0.1898920148431012 0.1021567439130491
2.541472371006012 0.1898969629861808 0.1021562966613858
3.652169941928285 0.1834692601999428 0.1
2.651924977309613 0.1946521668594952 0.1016545832196915
0.6481063644790179 0.1946652393674895 0.1016539062186476
4.349151777156925 0.1959177854679335 0.100430465375027
$EndNodes
$Elements
3 1896 1 1896
2 1 2 18
1 9 1 218 
2 1 10 218 
3 2 9 221 
4 13 2 221 
5 11 3 219 
6 3 12 219 
7 12 4 220 
8 4 14 220 
9 9 218 221 
10 10 11 217 
11 10 217 218 
12 217 11 219 
13 219 12 220 
14 14 13 217 
15 217 13 221 
16 14 217 220 
17 218 217 221 
18 217 219 220 
2 2 2 18
19 15 225 5 
20 5 225 16 
21 6 223 15 
22 19 223 6 
23 17 226 7 
24 7 226 18 
25 18 224 8 
26 8 224 20 
27 223 225 15 
28 16 222 17 
29 16 225 222 
30 222 226 17 
31 18 226 224 
32 20 222 19 
33 222 223 19 
34 20 224 222 
35 222 225 223 
36 224 226 222 
3 1 4 1860
37 327 219 477 654 
38 327 627 219 654 
39 223 478 276 657 
40 489 631 249 666 
41 385 249 631 666 
42 503 240 635 676 
43 355 635 240 676 
44 485 324 633 667 
45 336 633 324 667 
46 303 639 356 665 
47 522 481 266 629 
48 300 634 521 673 
49 415 630 229 672 
50 300 374 634 673 
51 516 229 630 672 
52 237 640 508 668 
53 301 499 633 671 
54 559 503 240 635 
55 627 327 553 654 
56 356 313 399 639 
57 303 530 639 665 
58 481 227 629 643 
59 285 634 418 670 
60 301 633 349 671 
61 412 265 355 635 
62 521 300 517 634 
63 237 397 640 668 
64 249 372 385 631 
65 375 227 332 629 
66 400 245 636 664 
67 229 525 516 630 
68 285 563 634 670 
69 332 629 227 643 
70 558 264 489 631 
71 335 250 415 630 
72 410 250 335 630 
73 374 371 326 634 
74 219 477 220 327 
75 549 636 245 664 
76 324 336 381 633 
77 238 630 410 651 
78 418 326 371 634 
79 398 632 258 650 
80 508 237 539 640 
81 381 349 301 633 
82 363 400 256 636 
83 525 238 537 630 
84 398 364 243 632 
85 494 245 549 636 
86 285 563 517 634 
87 529 282 499 633 
88 529 485 282 633 
89 238 537 630 651 
90 545 258 519 632 
91 545 258 632 650 
92 498 303 530 639 
93 518 626 276 657 
94 350 237 397 640 
95 477 330 220 327 
96 276 223 277 478 
97 481 227 266 629 
98 240 265 559 635 
99 240 355 265 635 
100 249 645 489 666 
101 356 303 313 639 
102 249 385 645 666 
103 375 266 227 629 
104 485 646 324 667 
105 477 308 327 654 
106 229 415 250 630 
107 324 646 336 667 
108 249 489 264 631 
109 517 300 326 634 
110 229 250 525 630 
111 326 300 374 634 
112 249 264 372 631 
113 267 539 237 640 
114 303 356 646 665 
115 238 250 410 630 
116 267 237 350 640 
117 313 303 498 639 
118 326 418 285 634 
119 217 477 219 654 
120 300 521 637 673 
121 400 245 256 636 
122 229 639 415 672 
123 300 637 374 673 
124 508 648 237 668 
125 261 417 649 656 
126 503 652 240 676 
127 355 240 652 676 
128 485 324 282 633 
129 282 301 499 633 
130 516 639 229 672 
131 535 645 261 656 
132 417 261 645 656 
133 261 649 535 656 
134 243 258 398 632 
135 360 638 235 659 
136 525 250 238 630 
137 222 223 225 657 
138 301 635 499 671 
139 220 217 477 219 
140 285 517 326 634 
141 282 324 381 633 
142 360 235 644 659 
143 381 301 282 633 
144 228 276 478 657 
145 494 256 245 636 
146 361 255 638 663 
147 303 646 530 665 
148 540 235 638 659 
149 255 361 641 663 
150 301 349 635 671 
151 237 648 397 668 
152 391 232 642 660 
153 308 553 327 654 
154 221 275 278 654 
155 394 254 649 653 
156 418 629 285 670 
157 540 644 235 659 
158 232 391 648 660 
159 519 258 243 632 
160 254 394 644 653 
161 514 642 232 660 
162 314 636 347 661 
163 552 649 254 653 
164 347 632 314 661 
165 218 275 221 654 
166 232 648 514 660 
167 285 629 563 670 
168 548 636 314 661 
169 322 657 524 658 
170 548 314 632 661 
171 510 638 255 663 
172 255 641 510 663 
173 626 222 225 657 
174 322 370 657 658 
175 254 644 552 653 
176 295 560 631 662 
177 295 640 560 662 
178 400 654 245 664 
179 481 629 614 643 
180 470 629 332 643 
181 295 631 413 662 
182 295 413 640 662 
183 470 375 332 629 
184 481 522 614 629 
185 549 245 654 664 
186 518 276 228 657 
187 322 524 647 658 
188 627 570 219 654 
189 221 278 476 654 
190 322 647 370 658 
191 485 633 616 667 
192 385 631 474 666 
193 486 323 637 652 
194 397 441 640 668 
195 524 322 491 657 
196 622 630 537 651 
197 545 632 621 650 
198 277 228 276 478 
199 337 637 323 652 
200 587 639 530 665 
201 560 317 511 640 
202 560 513 321 631 
203 499 315 567 635 
204 351 415 262 639 
205 356 421 303 646 
206 485 529 616 633 
207 330 477 308 327 
208 328 224 226 657 
209 361 409 255 641 
210 372 474 385 631 
211 621 545 519 632 
212 622 525 537 630 
213 231 637 383 652 
214 299 647 501 655 
215 416 374 300 637 
216 259 642 507 651 
217 448 633 336 667 
218 418 359 316 629 
219 496 641 269 650 
220 594 631 489 666 
221 329 224 328 657 
222 596 494 549 636 
223 308 477 424 654 
224 333 234 647 655 
225 596 636 549 664 
226 270 396 360 644 
227 590 508 640 668 
228 314 548 554 636 
229 593 503 635 676 
230 442 635 355 676 
231 435 356 639 665 
232 366 642 259 651 
233 586 529 499 633 
234 395 361 253 638 
235 387 259 366 642 
236 360 395 253 638 
237 381 433 349 633 
238 398 450 364 632 
239 489 594 558 631 
240 336 448 381 633 
241 410 335 438 630 
242 335 415 463 630 
243 611 517 563 634 
244 418 371 467 634 
245 374 432 371 634 
246 521 517 585 634 
247 559 593 503 635 
248 412 355 442 635 
249 508 539 590 640 
250 363 451 400 636 
251 356 399 435 639 
252 269 409 345 641 
253 345 269 641 650 
254 525 606 516 630 
255 349 633 433 671 
256 495 548 314 632 
257 586 633 499 671 
258 463 630 415 672 
259 432 634 374 673 
260 521 634 585 673 
261 255 510 542 638 
262 534 489 236 645 
263 531 637 231 652 
264 611 634 563 670 
265 467 418 634 670 
266 353 647 299 655 
267 389 272 383 652 
268 606 516 630 672 
269 323 337 416 637 
270 350 397 441 640 
271 498 530 587 639 
272 547 229 516 639 
273 400 636 451 664 
274 234 482 647 655 
275 508 543 237 648 
276 496 555 269 641 
277 507 259 557 642 
278 540 235 542 638 
279 349 420 301 635 
280 347 307 405 636 
281 268 543 514 648 
282 343 249 385 645 
283 296 347 404 632 
284 531 231 533 652 
285 336 324 421 646 
286 562 486 283 637 
287 562 283 521 637 
288 391 232 387 642 
289 394 396 254 644 
290 324 485 565 646 
291 555 510 244 641 
292 535 534 236 645 
293 425 478 223 657 
294 370 322 407 647 
295 413 295 341 631 
296 333 647 234 658 
297 228 478 339 657 
298 329 479 224 657 
299 628 328 226 657 
300 552 492 241 649 
301 304 575 649 656 
302 254 344 394 649 
303 344 261 417 649 
304 540 488 235 644 
305 390 295 413 640 
306 563 285 506 629 
307 334 232 391 648 
308 557 260 514 642 
309 482 234 647 658 
310 533 240 503 652 
311 530 291 565 646 
312 333 271 419 658 
313 568 286 524 647 
314 549 245 500 654 
315 488 552 270 644 
316 397 268 334 648 
317 421 291 303 646 
318 417 236 343 645 
319 234 520 482 655 
320 539 640 267 662 
321 244 255 409 641 
322 614 643 629 679 
323 262 415 229 639 
324 629 643 470 679 
325 297 641 365 663 
326 280 370 376 657 
327 568 501 286 647 
328 372 631 264 662 
329 228 518 657 658 
330 483 648 318 660 
331 218 625 275 654 
332 389 355 272 652 
333 499 301 315 635 
334 373 246 333 655 
335 287 619 644 653 
336 539 267 493 662 
337 560 295 317 640 
338 256 636 494 661 
339 321 295 560 631 
340 384 351 262 665 
341 219 570 217 654 
342 255 253 361 638 
343 342 638 293 663 
344 253 255 542 638 
345 293 638 490 663 
346 243 519 632 661 
347 515 641 297 663 
348 241 492 535 649 
349 622 630 651 677 
350 621 650 632 678 
351 318 648 471 660 
352 558 264 631 662 
353 554 307 636 664 
354 244 510 255 641 
355 269 244 409 641 
356 402 306 365 663 
357 323 652 486 676 
358 472 645 320 656 
359 299 353 407 647 
360 423 257 400 654 
361 619 287 644 659 
362 253 235 360 638 
363 346 405 307 664 
364 236 489 249 645 
365 350 267 640 662 
366 293 638 342 659 
367 360 235 270 644 
368 569 247 487 673 
369 320 645 505 656 
370 482 564 234 658 
371 316 285 418 629 
372 388 649 304 653 
373 293 490 638 659 
374 307 347 314 636 
375 375 266 629 670 
376 363 636 256 661 
377 231 383 272 652 
378 547 262 229 639 
379 522 629 266 670 
380 323 337 652 676 
381 348 642 312 660 
382 387 260 259 642 
383 554 512 298 664 
384 402 342 293 663 
385 518 271 564 658 
386 268 237 543 648 
387 550 263 494 661 
388 283 300 521 637 
389 369 239 646 665 
390 553 654 308 664 
391 519 263 550 661 
392 296 314 347 632 
393 364 243 632 661 
394 283 416 300 637 
395 615 646 239 665 
396 558 493 264 662 
397 420 315 301 635 
398 287 644 340 653 
399 388 304 649 656 
400 307 314 554 636 
401 291 421 324 646 
402 269 555 244 641 
403 486 323 283 637 
404 340 644 287 659 
405 483 318 648 668 
406 373 378 252 655 
407 535 236 261 645 
408 471 648 318 668 
409 399 639 313 672 
410 369 646 239 667 
411 559 635 265 671 
412 393 293 342 659 
413 312 642 497 660 
414 304 649 575 653 
415 405 636 307 664 
416 565 291 324 646 
417 368 302 382 672 
418 567 315 523 676 
419 378 643 252 655 
420 265 635 412 671 
421 268 514 232 648 
422 254 396 270 644 
423 542 235 253 638 
424 551 306 490 663 
425 274 422 338 673 
426 505 645 320 666 
427 260 232 514 642 
428 351 639 262 665 
429 325 408 388 653 
430 422 274 331 670 
431 552 241 254 649 
432 343 236 249 645 
433 321 341 295 631 
434 291 530 303 646 
435 401 363 256 661 
436 260 557 259 642 
437 239 646 615 667 
438 420 377 315 676 
439 556 483 318 660 
440 641 650 496 674 
441 507 651 642 675 
442 559 265 528 671 
443 237 268 397 648 
444 495 314 296 632 
445 368 399 313 672 
446 375 331 266 670 
447 477 217 352 654 
448 345 650 641 674 
449 484 281 561 672 
450 642 651 366 675 
451 320 645 472 666 
452 544 511 289 668 
453 286 322 524 647 
454 228 657 339 658 
455 383 637 231 673 
456 317 511 640 668 
457 283 323 416 637 
458 232 260 387 642 
459 299 655 501 669 
460 526 252 643 655 
461 270 552 254 644 
462 364 401 243 661 
463 231 272 533 652 
464 390 317 295 640 
465 354 248 380 671 
466 515 297 551 663 
467 242 411 372 662 
468 274 634 569 670 
469 333 246 234 655 
470 261 236 417 645 
471 383 247 338 673 
472 369 384 51 665 
473 313 639 498 672 
474 233 569 480 670 
475 344 241 261 649 
476 316 506 285 629 
477 261 241 535 649 
478 235 488 270 644 
479 569 634 274 673 
480 287 509 619 653 
481 526 520 252 655 
482 221 217 218 654 
483 308 654 424 664 
484 414 273 354 667 
485 390 357 317 668 
486 230 354 633 671 
487 268 232 334 648 
488 280 322 370 657 
489 484 630 302 672 
490 367 294 388 656 
491 340 287 393 659 
492 293 576 490 659 
493 502 528 230 671 
494 286 407 322 647 
495 348 312 428 660 
496 408 287 340 653 
497 231 637 531 673 
498 561 313 498 672 
499 504 251 547 665 
500 288 513 532 666 
501 321 427 341 666 
502 513 321 631 666 
503 501 299 286 647 
504 353 655 299 669 
505 333 234 271 658 
506 422 634 274 670 
507 302 630 382 672 
508 222 425 223 657 
509 350 411 242 662 
510 280 491 322 657 
511 272 240 533 652 
512 52 414 369 667 
513 254 241 344 649 
514 486 523 204 676 
515 274 634 422 673 
516 355 240 272 652 
517 262 639 547 665 
518 323 377 337 676 
519 365 641 297 674 
520 390 317 640 668 
521 234 246 520 655 
522 230 633 354 667 
523 345 641 453 674 
524 297 365 306 663 
525 465 642 366 675 
526 312 497 556 660 
527 380 248 412 671 
528 312 642 348 675 
529 567 635 315 676 
530 564 271 234 658 
531 251 384 262 665 
532 472 320 367 656 
533 446 649 417 656 
534 289 483 544 668 
535 536 649 575 656 
536 321 341 631 666 
537 420 315 635 676 
538 554 298 307 664 
539 297 641 515 674 
540 231 531 487 673 
541 625 218 570 654 
542 293 306 402 663 
543 226 224 222 657 
544 569 274 247 673 
545 502 230 633 671 
546 233 480 522 670 
547 221 476 217 654 
548 286 299 407 647 
549 293 490 306 663 
550 256 494 263 661 
551 243 263 519 661 
552 493 267 242 662 
553 578 641 496 674 
554 579 507 642 675 
555 257 245 400 654 
556 619 576 309 659 
557 315 292 523 676 
558 615 239 504 665 
559 288 532 505 666 
560 312 497 642 675 
561 317 289 511 668 
562 306 551 297 663 
563 325 388 304 653 
564 484 302 281 672 
565 471 318 357 668 
566 328 628 491 657 
567 391 642 473 660 
568 459 646 356 665 
569 230 573 502 667 
570 377 292 315 676 
571 338 247 274 673 
572 500 275 625 654 
573 298 512 553 664 
574 281 302 368 672 
575 600 648 508 668 
576 307 298 346 664 
577 372 264 242 662 
578 559 503 105 240 
579 419 228 339 658 
580 526 655 643 669 
581 643 655 378 669 
582 293 393 309 659 
583 540 638 623 659 
584 315 523 203 567 
585 581 320 505 656 
586 455 644 394 653 
587 313 281 368 672 
588 421 303 149 356 
589 127 365 402 306 
590 609 489 645 666 
591 233 274 569 670 
592 409 255 29 361 
593 351 49 262 415 
594 399 313 147 368 
595 571 222 626 657 
596 262 547 251 665 
597 228 271 518 658 
598 369 51 239 665 
599 552 624 649 653 
600 399 148 313 356 
601 50 262 384 351 
602 457 394 649 653 
603 561 281 313 672 
604 230 248 354 671 
605 256 263 401 661 
606 353 462 647 655 
607 377 315 154 420 
608 56 355 412 265 
609 388 294 304 656 
610 501 647 608 655 
611 513 288 321 666 
612 242 264 493 662 
613 460 336 646 667 
614 373 252 246 655 
615 443 638 360 659 
616 230 502 633 667 
617 479 425 224 657 
618 350 242 267 662 
619 427 288 472 666 
620 573 273 615 667 
621 428 284 471 660 
622 323 486 292 676 
623 207 517 521 300 
624 109 487 569 247 
625 401 263 243 661 
626 528 559 104 265 
627 128 402 342 293 
628 202 567 499 315 
629 226 222 628 657 
630 248 528 265 671 
631 251 51 384 665 
632 369 239 52 667 
633 230 354 273 667 
634 106 503 533 240 
635 486 204 292 676 
636 383 231 247 673 
637 396 32 270 360 
638 561 313 196 498 
639 161 359 426 679 
640 445 413 631 662 
641 266 331 233 670 
642 618 645 535 656 
643 591 637 521 673 
644 374 637 439 673 
645 440 635 349 671 
646 511 187 317 560 
647 592 499 635 671 
648 464 415 639 672 
649 331 274 233 670 
650 493 89 267 539 
651 513 321 186 560 
652 375 62 266 331 
653 422 338 60 274 
654 158 326 374 371 
655 357 289 317 668 
656 359 316 160 418 
657 403 311 675 677 
658 352 424 477 654 
659 556 318 284 660 
660 408 325 287 653 
661 431 378 655 669 
662 526 583 655 669 
663 361 253 30 395 
664 534 86 236 489 
665 444 360 644 659 
666 385 386 645 666 
667 28 269 409 345 
668 337 323 155 377 
669 355 57 389 272 
670 324 150 336 421 
671 523 292 204 676 
672 342 393 129 293 
673 607 639 516 672 
674 257 500 245 654 
675 292 377 323 676 
676 372 38 249 385 
677 97 525 516 229 
678 436 640 413 662 
679 361 638 449 663 
680 248 265 412 671 
681 257 278 275 654 
682 509 287 325 653 
683 144 403 358 677 
684 361 454 641 663 
685 287 309 393 659 
686 308 424 346 664 
687 483 289 318 668 
688 293 309 576 659 
689 406 674 319 678 
690 338 383 59 247 
691 157 300 416 374 
692 382 146 302 368 
693 48 415 335 250 
694 264 87 558 489 
695 612 563 629 670 
696 418 468 629 670 
697 125 362 406 678 
698 366 387 45 259 
699 329 328 280 657 
700 555 78 244 510 
701 430 417 645 656 
702 528 248 230 671 
703 233 522 266 670 
704 602 631 560 662 
705 347 452 632 661 
706 548 632 597 661 
707 604 560 640 662 
708 347 636 456 661 
709 548 601 636 661 
710 306 177 551 490 
711 603 637 531 652 
712 383 637 458 652 
713 294 367 320 656 
714 485 566 646 667 
715 52 273 414 667 
716 255 542 510 79 
717 520 246 252 655 
718 548 171 314 554 
719 284 428 312 660 
720 73 494 550 263 
721 514 268 92 543 
722 481 266 112 522 
723 391 392 648 660 
724 420 301 153 349 
725 380 55 412 248 
726 506 210 572 679 
727 395 253 31 360 
728 516 547 98 229 
729 132 408 388 325 
730 511 289 188 544 
731 237 90 508 539 
732 237 91 543 508 
733 605 642 514 660 
734 484 574 194 677 
735 189 289 483 544 
736 540 541 644 659 
737 74 550 519 263 
738 619 309 287 659 
739 284 312 556 660 
740 589 514 648 660 
741 47 335 410 250 
742 530 498 197 303 
743 610 647 524 658 
744 561 484 195 281 
745 288 505 320 666 
746 493 264 88 558 
747 406 365 126 674 
748 513 185 288 532 
749 487 247 231 673 
750 133 388 367 294 
751 190 318 556 483 
752 256 24 363 401 
753 405 347 122 307 
754 321 288 427 666 
755 316 629 359 679 
756 419 333 67 271 
757 173 577 495 678 
758 486 637 603 652 
759 458 637 337 652 
760 199 485 565 324 
761 284 318 471 660 
762 532 184 288 505 
763 462 333 647 655 
764 582 530 646 665 
765 305 469 669 679 
766 336 151 324 381 
767 53 354 414 273 
768 337 156 323 416 
769 58 383 389 272 
770 332 375 63 227 
771 608 647 482 655 
772 316 506 629 679 
773 418 326 159 371 
774 331 422 61 274 
775 33 254 394 396 
776 617 675 311 677 
777 397 648 429 668 
778 385 37 249 343 
779 99 547 504 251 
780 542 540 80 235 
781 96 537 525 238 
782 123 347 404 296 
783 401 243 25 364 
784 595 638 510 663 
785 251 504 239 665 
786 584 524 657 658 
787 108 231 531 487 
788 521 562 206 283 
789 570 218 217 654 
790 620 319 674 678 
791 466 370 647 658 
792 552 644 580 653 
793 523 315 203 292 
794 302 630 484 677 
795 240 105 559 265 
796 303 421 149 291 
797 302 382 630 677 
798 121 346 405 307 
799 400 256 23 363 
800 54 380 354 248 
801 301 152 349 381 
802 387 44 232 391 
803 365 127 297 306 
804 145 358 382 677 
805 562 486 205 283 
806 107 231 533 531 
807 340 408 131 287 
808 389 383 458 652 
809 603 531 533 652 
810 208 563 517 285 
811 569 110 233 480 
812 39 242 411 372 
813 29 244 255 409 
814 480 111 233 522 
815 296 495 632 678 
816 393 340 130 287 
817 314 172 548 495 
818 322 165 370 407 
819 404 362 124 678 
820 348 403 143 675 
821 510 641 599 663 
822 580 644 619 653 
823 257 476 278 654 
824 329 280 479 657 
825 279 426 469 679 
826 154 292 315 377 
827 355 56 240 265 
828 390 357 139 317 
829 313 561 196 281 
830 298 170 512 554 
831 549 494 72 245 
832 419 271 228 658 
833 298 553 308 664 
834 400 475 654 664 
835 350 40 242 411 
836 535 85 236 534 
837 211 613 572 679 
838 229 262 49 415 
839 313 281 147 368 
840 273 239 615 667 
841 198 565 530 291 
842 148 303 313 356 
843 50 262 251 384 
844 201 499 529 282 
845 502 528 103 230 
846 320 472 288 666 
847 370 437 657 658 
848 297 126 365 674 
849 251 239 51 665 
850 209 506 563 285 
851 617 290 574 677 
852 293 128 402 306 
853 243 26 364 398 
854 137 341 413 295 
855 553 570 627 654 
856 65 252 373 378 
857 178 293 576 490 
858 255 244 78 510 
859 161 316 359 679 
860 142 428 348 312 
861 311 403 144 677 
862 318 289 357 668 
863 588 652 503 676 
864 355 652 434 676 
865 260 93 557 514 
866 296 632 404 678 
867 540 81 235 488 
868 519 545 75 258 
869 417 35 261 344 
870 496 77 269 555 
871 356 459 421 646 
872 343 417 36 236 
873 310 620 577 678 
874 94 557 507 259 
875 413 390 138 295 
876 214 524 568 286 
877 504 615 100 239 
878 613 305 669 679 
879 28 269 244 409 
880 472 430 645 656 
881 253 30 255 361 
882 501 568 608 647 
883 323 292 155 377 
884 272 355 57 240 
885 150 324 291 421 
886 367 472 134 320 
887 353 462 407 647 
888 207 517 300 326 
889 274 109 569 247 
890 564 234 116 482 
891 274 338 60 247 
892 158 326 300 374 
893 529 485 200 282 
894 540 542 623 638 
895 391 387 473 642 
896 497 191 312 556 
897 323 486 204 292 
898 272 106 533 240 
899 273 52 239 667 
900 445 413 341 631 
901 125 406 319 678 
902 508 600 543 648 
903 249 236 86 489 
904 394 455 396 644 
905 391 43 232 334 
906 230 273 573 667 
907 248 528 104 265 
908 255 253 542 79 
909 301 202 499 315 
910 344 417 446 649 
911 101 615 573 273 
912 348 143 312 675 
913 177 306 293 490 
914 224 425 222 657 
915 313 197 498 303 
916 136 427 341 321 
917 360 32 270 235 
918 472 427 135 288 
919 293 393 129 309 
920 549 654 598 664 
921 97 525 229 250 
922 328 491 280 657 
923 395 449 361 638 
924 360 443 395 638 
925 281 302 146 368 
926 415 48 229 250 
927 347 452 404 632 
928 560 602 513 631 
929 497 642 605 660 
930 560 511 604 640 
931 347 405 456 636 
932 548 601 554 636 
933 486 562 603 637 
934 337 458 416 637 
935 349 440 420 635 
936 562 521 591 637 
937 416 439 374 637 
938 592 499 567 635 
939 372 249 38 264 
940 87 264 249 489 
941 351 464 415 639 
942 304 575 325 653 
943 334 42 268 397 
944 506 316 210 679 
945 624 492 552 649 
946 495 597 548 632 
947 466 647 333 658 
948 361 454 409 641 
949 409 453 345 641 
950 484 194 302 677 
951 515 599 641 663 
952 344 34 254 394 
953 465 387 366 642 
954 482 647 610 658 
955 325 575 509 653 
956 187 295 317 560 
957 316 285 160 418 
958 257 275 500 654 
959 233 266 62 331 
960 321 295 186 560 
961 260 45 387 259 
962 89 267 242 493 
963 317 289 188 511 
964 90 237 267 539 
965 268 237 91 543 
966 55 412 248 265 
967 153 315 301 420 
968 163 469 353 669 
969 357 471 140 318 
970 189 289 318 483 
971 262 98 547 229 
972 145 382 302 677 
973 352 217 476 654 
974 520 115 234 482 
975 619 644 541 659 
976 488 82 270 552 
977 524 491 584 657 
978 390 413 436 640 
979 617 497 192 675 
980 344 457 394 649 
981 133 388 294 304 
982 333 373 66 246 
983 175 515 620 674 
984 185 288 321 513 
985 462 373 333 655 
986 325 388 132 304 
987 552 83 241 492 
988 608 482 520 655 
989 547 99 262 251 
990 564 518 117 271 
991 231 59 383 247 
992 157 300 283 416 
993 547 516 607 639 
994 613 212 501 669 
995 296 173 495 678 
996 491 524 215 322 
997 418 468 359 629 
998 612 563 506 629 
999 534 609 489 645 
1000 307 314 171 554 
1001 494 73 256 263 
1002 291 199 565 324 
1003 481 112 266 227 
1004 396 444 360 644 
1005 360 253 31 235 
1006 266 63 375 227 
1007 370 437 376 657 
1008 392 471 648 660 
1009 610 568 524 647 
1010 281 484 195 302 
1011 254 33 270 396 
1012 320 288 184 505 
1013 92 232 268 514 
1014 509 180 287 619 
1015 353 164 299 407 
1016 256 24 401 263 
1017 307 347 122 314 
1018 457 649 388 653 
1019 320 581 294 656 
1020 308 346 298 664 
1021 535 618 534 645 
1022 578 555 496 641 
1023 507 557 579 642 
1024 305 279 469 679 
1025 426 279 161 679 
1026 421 460 336 646 
1027 519 243 74 263 
1028 617 311 290 677 
1029 404 124 296 678 
1030 241 84 535 492 
1031 410 238 47 250 
1032 108 231 487 247 
1033 206 521 283 300 
1034 568 501 213 286 
1035 325 131 408 287 
1036 343 37 249 236 
1037 266 233 111 522 
1038 340 444 644 659 
1039 542 510 595 638 
1040 242 264 88 493 
1041 340 644 455 653 
1042 123 347 296 314 
1043 401 25 243 263 
1044 451 636 405 664 
1045 554 636 596 664 
1046 407 466 370 647 
1047 242 267 40 350 
1048 252 114 520 526 
1049 525 96 238 250 
1050 80 253 542 235 
1051 211 305 613 679 
1052 182 304 294 656 
1053 475 423 400 654 
1054 346 451 405 664 
1055 190 318 284 556 
1056 554 596 512 664 
1057 234 67 333 271 
1058 620 310 319 678 
1059 615 582 646 665 
1060 626 518 571 657 
1061 471 429 648 668 
1062 446 388 649 656 
1063 387 232 44 260 
1064 39 242 372 264 
1065 130 393 287 309 
1066 283 486 205 323 
1067 107 533 231 272 
1068 175 297 515 674 
1069 506 209 316 285 
1070 341 137 321 295 
1071 569 233 110 274 
1072 285 517 208 326 
1073 282 324 151 381 
1074 354 53 230 273 
1075 283 323 156 416 
1076 383 58 231 272 
1077 339 478 425 657 
1078 285 326 159 418 
1079 331 61 233 274 
1080 317 357 139 289 
1081 342 638 443 659 
1082 449 638 342 663 
1083 564 116 234 271 
1084 365 641 454 663 
1085 305 299 501 669 
1086 214 524 286 322 
1087 589 514 543 648 
1088 483 589 648 660 
1089 303 198 530 291 
1090 456 636 363 661 
1091 539 604 640 662 
1092 494 636 601 661 
1093 558 631 602 662 
1094 364 632 452 661 
1095 445 631 372 662 
1096 519 597 632 661 
1097 212 305 501 669 
1098 85 236 261 535 
1099 121 346 307 298 
1100 23 256 400 245 
1101 344 35 261 241 
1102 435 639 351 665 
1103 235 81 270 488 
1104 93 260 232 514 
1105 317 138 390 295 
1106 354 230 54 248 
1107 152 301 282 381 
1108 370 166 280 376 
1109 102 573 502 230 
1110 170 298 307 554 
1111 557 514 605 642 
1112 256 72 494 245 
1113 509 580 619 653 
1114 541 488 540 644 
1115 244 269 77 555 
1116 179 576 309 619 
1117 555 599 510 641 
1118 386 343 385 645 
1119 392 334 391 648 
1120 384 435 351 665 
1121 172 314 296 495 
1122 518 584 657 658 
1123 469 426 279 162 
1124 165 322 286 407 
1125 466 333 419 658 
1126 294 367 134 320 
1127 230 528 103 248 
1128 201 499 282 301 
1129 564 482 610 658 
1130 141 471 428 284 
1131 312 192 497 675 
1132 475 424 654 664 
1133 590 640 511 668 
1134 490 638 595 663 
1135 268 232 43 334 
1136 437 339 657 658 
1137 251 504 100 239 
1138 576 309 293 178 
1139 101 615 273 239 
1140 473 642 348 660 
1141 544 590 511 668 
1142 417 261 36 236 
1143 290 194 574 677 
1144 557 94 260 259 
1145 22 257 400 423 
1146 120 424 346 308 
1147 581 182 294 656 
1148 243 26 398 258 
1149 320 472 135 288 
1150 623 638 490 659 
1151 574 617 193 290 
1152 628 222 571 657 
1153 284 312 191 556 
1154 373 252 65 246 
1155 339 419 68 228 
1156 280 376 479 657 
1157 282 485 200 324 
1158 519 75 243 258 
1159 423 476 257 654 
1160 406 126 319 674 
1161 428 142 284 312 
1162 513 631 594 666 
1163 580 552 488 644 
1164 611 569 634 670 
1165 467 634 422 670 
1166 582 530 565 646 
1167 297 319 126 674 
1168 354 633 448 667 
1169 173 310 577 678 
1170 577 620 310 174 
1171 505 645 618 656 
1172 566 615 646 667 
1173 350 640 436 662 
1174 472 645 386 666 
1175 609 645 505 666 
1176 513 594 532 666 
1177 447 398 650 678 
1178 461 651 410 677 
1179 143 403 311 675 
1180 467 422 331 670 
1181 611 480 569 670 
1182 163 353 299 669 
1183 333 66 234 246 
1184 417 343 430 645 
1185 429 397 334 648 
1186 512 169 298 553 
1187 71 500 549 245 
1188 447 450 398 678 
1189 316 161 279 679 
1190 461 410 438 677 
1191 382 630 463 672 
1192 585 634 569 673 
1193 422 634 432 673 
1194 434 652 337 676 
1195 486 652 588 676 
1196 354 433 633 671 
1197 502 633 586 671 
1198 414 354 448 667 
1199 484 606 630 672 
1200 143 311 312 675 
1201 375 629 468 670 
1202 612 629 522 670 
1203 549 500 598 654 
1204 485 566 565 646 
1205 497 605 556 660 
1206 572 279 211 679 
1207 369 460 646 667 
1208 520 234 115 246 
1209 210 279 572 679 
1210 515 551 599 663 
1211 459 369 646 665 
1212 368 382 463 672 
1213 338 422 432 673 
1214 585 569 487 673 
1215 344 254 34 241 
1216 354 380 433 671 
1217 397 42 268 237 
1218 83 241 254 552 
1219 261 241 84 535 
1220 587 547 639 665 
1221 457 388 408 653 
1222 502 586 528 671 
1223 484 561 606 672 
1224 290 144 358 677 
1225 136 427 321 288 
1226 483 648 600 668 
1227 472 367 430 656 
1228 318 140 357 289 
1229 340 393 444 659 
1230 575 649 624 653 
1231 470 643 379 679 
1232 526 643 527 669 
1233 379 643 378 669 
1234 527 643 614 679 
1235 390 640 441 668 
1236 192 311 617 675 
1237 286 299 164 407 
1238 408 340 455 653 
1239 474 631 341 666 
1240 559 592 635 671 
1241 412 635 440 671 
1242 598 654 553 664 
1243 531 637 591 673 
1244 439 637 383 673 
1245 464 639 399 672 
1246 290 311 144 677 
1247 402 449 342 663 
1248 402 365 454 663 
1249 125 310 362 678 
1250 501 655 583 669 
1251 616 633 502 667 
1252 393 342 443 659 
1253 431 655 353 669 
1254 401 456 363 661 
1255 539 493 604 662 
1256 550 494 601 661 
1257 254 270 82 552 
1258 613 305 212 669 
1259 401 364 452 661 
1260 558 602 493 662 
1261 519 550 597 661 
1262 411 445 372 662 
1263 180 287 325 509 
1264 620 319 175 674 
1265 469 163 305 669 
1266 290 302 194 677 
1267 461 366 651 675 
1268 345 447 650 674 
1269 593 635 567 676 
1270 420 635 442 676 
1271 379 470 332 643 
1272 481 614 527 643 
1273 535 649 536 656 
1274 587 504 547 665 
1275 286 501 213 299 
1276 533 503 588 652 
1277 355 389 434 652 
1278 474 341 427 666 
1279 581 536 182 656 
1280 125 319 310 678 
1281 593 567 523 676 
1282 420 442 377 676 
1283 296 310 173 678 
1284 616 502 573 667 
1285 280 322 166 370 
1286 446 367 388 656 
1287 403 675 461 677 
1288 357 390 441 668 
1289 406 447 674 678 
1290 316 279 210 679 
1291 546 650 621 678 
1292 622 651 538 677 
1293 379 378 431 669 
1294 526 527 583 669 
1295 297 175 319 674 
1296 619 541 576 659 
1297 520 114 252 246 
1298 483 556 589 660 
1299 498 639 607 672 
1300 284 141 471 318 
1301 461 465 366 675 
1302 345 453 447 674 
1303 538 622 537 651 
1304 546 545 621 650 
1305 392 428 471 660 
1306 192 312 311 675 
1307 305 211 279 679 
1308 350 436 411 662 
1309 465 348 642 675 
1310 145 302 290 677 
1311 403 461 358 677 
1312 279 305 469 162 
1313 406 362 447 678 
1314 145 290 358 677 
1315 228 419 68 271 
1316 305 212 501 299 
1317 102 573 230 273 
1318 551 490 595 663 
1319 365 453 641 674 
1320 473 348 428 660 
1321 290 617 193 311 
1322 309 287 179 619 
1323 362 310 124 678 
1324 526 583 520 655 
1325 373 431 378 655 
1326 576 623 490 659 
1327 228 117 518 271 
1328 280 491 215 322 
1329 359 629 470 679 
1330 518 564 584 658 
1331 538 651 507 675 
1332 496 650 546 674 
1333 319 310 620 174 
1334 400 257 22 245 
1335 346 120 308 298 
1336 614 629 506 679 
1337 437 419 339 658 
1338 515 641 578 674 
1339 404 632 450 678 
1340 438 630 382 677 
1341 579 642 497 675 
1342 379 669 469 679 
1343 296 124 310 678 
1344 532 609 505 666 
1345 617 538 675 677 
1346 305 163 299 669 
1347 620 674 546 678 
1348 471 357 429 668 
1349 369 414 460 667 
1350 615 504 582 665 
1351 375 468 331 670 
1352 480 612 522 670 
1353 505 618 581 656 
1354 613 669 527 679 
1355 377 434 337 676 
1356 523 486 588 676 
1357 459 384 369 665 
1358 359 470 426 679 
1359 483 600 544 668 
1360 559 528 592 671 
1361 380 412 440 671 
1362 368 464 399 672 
1363 531 591 487 673 
1364 439 383 338 673 
1365 426 379 469 679 
1366 621 632 495 678 
1367 484 630 622 677 
1368 362 404 450 678 
1369 358 438 382 677 
1370 614 506 572 679 
1371 617 574 538 677 
1372 620 546 577 678 
1373 572 613 527 679 
1374 460 448 336 667 
1375 609 594 489 666 
1376 579 538 507 675 
1377 578 496 546 674 
1378 475 346 424 664 
1379 561 498 607 672 
1380 430 446 417 656 
1381 577 621 495 678 
1382 574 484 622 677 
1383 500 71 257 245 
1384 308 298 169 553 
1385 566 573 615 667 
1386 427 472 386 666 
1387 46 410 366 651 
1388 581 320 183 505 
1389 345 398 27 650 
1390 575 181 325 509 
1391 385 474 386 666 
1392 485 616 566 667 
1393 512 598 553 664 
1394 461 675 651 677 
1395 650 674 447 678 
1396 590 600 508 668 
1397 435 459 356 665 
1398 535 492 536 649 
1399 365 406 453 674 
1400 378 332 64 643 
1401 593 588 503 676 
1402 442 355 434 676 
1403 465 403 348 675 
1404 526 113 481 643 
1405 444 443 360 659 
1406 410 46 238 651 
1407 507 537 95 651 
1408 46 366 259 651 
1409 545 496 76 650 
1410 398 258 27 650 
1411 95 259 507 651 
1412 457 455 394 653 
1413 378 64 252 643 
1414 269 76 496 650 
1415 397 429 441 668 
1416 345 27 269 650 
1417 481 113 227 643 
1418 582 587 530 665 
1419 294 320 183 581 
1420 613 501 583 669 
1421 432 374 439 673 
1422 591 521 585 673 
1423 464 463 415 672 
1424 440 349 433 671 
1425 592 586 499 671 
1426 469 431 353 669 
1427 391 473 392 660 
1428 612 611 563 670 
1429 418 467 468 670 
1430 606 607 516 672 
1431 526 252 113 643 
1432 605 514 589 660 
1433 332 227 64 643 
1434 541 540 623 659 
1435 643 669 379 679 
1436 361 449 454 663 
1437 445 436 413 662 
1438 527 669 643 679 
1439 325 304 181 575 
1440 537 238 95 651 
1441 651 675 538 677 
1442 546 674 650 678 
1443 624 552 580 653 
1444 545 76 258 650 
1445 620 515 578 674 
1446 575 624 509 653 
1447 617 579 497 675 
1448 580 541 619 644 
1449 604 602 560 662 
1450 347 456 452 661 
1451 548 597 601 661 
1452 476 423 352 654 
1453 501 608 583 655 
1454 353 431 462 655 
1455 352 475 424 654 
1456 11 219 627 570 
1457 10 570 625 218 
1458 20 224 479 425 
1459 223 425 19 478 
1460 46 259 238 651 
1461 447 362 450 678 
1462 438 358 461 677 
1463 429 392 471 648 
1464 430 386 472 645 
1465 582 566 615 646 
1466 628 17 222 226 
1467 225 16 222 626 
1468 64 227 252 643 
1469 252 227 113 643 
1470 27 258 269 650 
1471 400 451 475 664 
1472 595 510 599 663 
1473 238 259 95 651 
1474 403 465 461 675 
1475 453 406 447 674 
1476 500 625 570 654 
1477 269 258 76 650 
1478 221 476 13 217 
1479 14 217 477 220 
1480 596 549 598 664 
1481 578 515 599 641 
1482 497 579 605 642 
1483 571 491 628 657 
1484 224 20 222 425 
1485 19 222 425 223 
1486 570 10 217 218 
1487 219 11 217 570 
1488 486 603 588 652 
1489 458 337 434 652 
1490 376 425 479 657 
1491 491 216 628 328 
1492 626 276 118 518 
1493 625 500 70 275 
1494 277 69 228 478 
1495 280 329 479 167 
1496 168 627 327 553 
1497 460 414 448 667 
1498 468 375 470 629 
1499 612 614 522 629 
1500 532 594 609 666 
1501 330 477 119 308 
1502 278 21 476 257 
1503 570 553 598 654 
1504 217 476 13 352 
1505 14 217 352 477 
1506 459 369 460 646 
1507 618 535 536 656 
1508 424 119 477 308 
1509 257 21 476 423 
1510 586 616 529 633 
1511 584 571 518 657 
1512 473 465 348 642 
1513 518 276 118 228 
1514 328 491 216 280 
1515 500 257 70 275 
1516 69 339 228 478 
1517 437 339 425 657 
1518 168 327 308 553 
1519 167 479 280 376 
1520 444 455 340 644 
1521 490 623 595 638 
1522 443 444 393 659 
1523 544 600 590 668 
1524 388 457 446 649 
1525 618 505 609 645 
1526 459 435 384 665 
1527 613 583 527 669 
1528 379 431 469 669 
1529 483 589 600 648 
1530 449 443 342 638 
1531 455 457 408 653 
1532 450 452 364 632 
1533 594 602 558 631 
1534 448 433 381 633 
1535 438 335 463 630 
1536 440 412 442 635 
1537 593 559 592 635 
1538 467 371 432 634 
1539 539 604 590 640 
1540 456 451 363 636 
1541 585 517 611 634 
1542 603 591 531 637 
1543 458 383 439 637 
1544 596 601 494 636 
1545 445 474 372 631 
1546 621 519 597 632 
1547 399 464 435 639 
1548 606 525 622 630 
1549 584 610 524 658 
1550 454 365 453 641 
1551 462 333 466 647 
1552 608 610 482 647 
1553 571 17 222 628 
1554 626 16 222 571 
1555 434 377 442 676 
1556 588 593 523 676 
1557 556 605 589 660 
1558 536 624 575 649 
1559 498 587 607 639 
1560 426 470 379 679 
1561 487 591 585 673 
1562 439 338 432 673 
1563 463 464 368 672 
1564 433 380 440 671 
1565 586 592 528 671 
1566 449 402 454 663 
1567 611 612 480 670 
1568 467 331 468 670 
1569 350 441 436 640 
1570 466 437 370 658 
1571 607 606 561 672 
1572 546 620 578 674 
1573 538 579 617 675 
1574 446 430 367 656 
1575 475 352 423 654 
1576 572 527 614 679 
1577 345 447 398 650 
1578 366 410 461 651 
1579 456 401 452 661 
1580 604 493 602 662 
1581 597 550 601 661 
1582 580 488 541 644 
1583 436 445 411 662 
1584 460 421 459 646 
1585 392 429 334 648 
1586 386 430 343 645 
1587 565 566 582 646 
1588 616 586 502 633 
1589 474 445 341 631 
1590 495 621 597 632 
1591 470 359 468 629 
1592 614 612 506 629 
1593 484 606 622 630 
1594 588 603 533 652 
1595 434 389 458 652 
1596 520 583 608 655 
1597 431 373 462 655 
1598 578 599 555 641 
1599 546 621 577 678 
1600 622 538 574 677 
1601 455 444 396 644 
1602 610 608 568 647 
1603 557 605 579 642 
1604 623 542 595 638 
1605 443 449 395 638 
1606 452 450 404 632 
1607 594 513 602 631 
1608 448 354 433 633 
1609 463 382 438 630 
1610 585 611 569 634 
1611 432 422 467 634 
1612 567 593 592 635 
1613 511 590 604 640 
1614 440 442 420 635 
1615 451 456 405 636 
1616 601 596 554 636 
1617 591 603 562 637 
1618 416 458 439 637 
1619 154 155 292 377 
1620 355 56 57 240 
1621 244 29 28 409 
1622 127 126 365 297 
1623 526 481 527 643 
1624 332 378 379 643 
1625 464 351 435 639 
1626 543 600 589 648 
1627 127 402 128 306 
1628 454 453 409 641 
1629 624 580 509 653 
1630 465 473 387 642 
1631 281 146 147 368 
1632 49 48 229 415 
1633 86 87 249 489 
1634 599 551 595 663 
1635 148 149 303 356 
1636 51 50 251 384 
1637 255 30 29 361 
1638 24 25 401 263 
1639 347 123 122 314 
1640 387 44 45 260 
1641 393 130 129 309 
1642 96 525 97 250 
1643 571 584 491 657 
1644 372 38 39 264 
1645 598 500 570 654 
1646 412 55 56 265 
1647 153 154 315 420 
1648 486 204 205 323 
1649 106 533 107 272 
1650 517 207 208 326 
1651 110 109 569 274 
1652 607 587 547 639 
1653 51 52 369 239 
1654 149 150 291 421 
1655 390 436 441 640 
1656 425 376 437 657 
1657 360 31 32 235 
1658 528 104 103 248 
1659 170 307 171 554 
1660 256 72 73 494 
1661 499 201 202 301 
1662 344 446 457 649 
1663 407 462 466 647 
1664 50 49 262 351 
1665 148 313 147 399 
1666 22 23 400 245 
1667 120 346 121 298 
1668 47 46 238 410 
1669 290 144 145 358 
1670 74 75 243 519 
1671 295 187 186 560 
1672 159 160 285 418 
1673 62 61 233 331 
1674 88 89 242 493 
1675 231 59 58 383 
1676 283 156 157 416 
1677 151 152 282 381 
1678 54 53 230 354 
1679 487 109 108 247 
1680 521 206 207 300 
1681 26 27 398 258 
1682 362 125 124 310 
1683 496 545 546 650 
1684 537 507 538 651 
1685 346 475 451 664 
1686 106 105 503 240 
1687 523 203 204 292 
1688 105 104 559 265 
1689 567 202 203 315 
1690 357 441 429 668 
1691 504 587 582 665 
1692 343 36 37 236 
1693 196 197 498 313 
1694 270 33 32 396 
1695 94 507 95 259 
1696 609 534 618 645 
1697 317 188 187 511 
1698 269 76 77 496 
1699 186 185 321 513 
1700 89 90 267 539 
1701 91 92 268 543 
1702 318 190 189 483 
1703 184 183 320 505 
1704 79 253 542 80 
1705 178 177 293 490 
1706 234 67 66 333 
1707 510 78 255 79 
1708 143 142 348 312 
1709 616 573 566 667 
1710 194 195 484 302 
1711 427 386 474 666 
1712 34 35 344 241 
1713 195 196 561 281 
1714 92 93 232 514 
1715 516 98 97 229 
1716 128 342 129 293 
1717 338 59 60 247 
1718 157 158 300 374 
1719 172 296 173 495 
1720 43 42 268 334 
1721 408 132 131 325 
1722 41 40 267 350 
1723 252 65 64 378 
1724 428 392 473 660 
1725 111 112 266 522 
1726 165 166 322 370 
1727 270 81 82 488 
1728 85 86 236 534 
1729 506 209 210 316 
1730 136 341 137 321 
1731 266 63 62 375 
1732 485 199 200 324 
1733 113 112 481 227 
1734 541 623 576 659 
1735 160 161 316 359 
1736 565 198 199 291 
1737 547 99 98 262 
1738 388 133 132 304 
1739 31 30 253 395 
1740 13 14 217 352 
1741 165 286 164 407 
1742 512 596 598 664 
1743 284 191 190 556 
1744 610 584 564 658 
1745 185 184 288 532 
1746 289 189 188 544 
1747 90 91 237 508 
1748 158 159 326 371 
1749 60 61 422 274 
1750 177 176 306 551 
1751 419 67 68 271 
1752 139 138 390 317 
1753 47 48 335 250 
1754 302 145 146 382 
1755 155 156 323 337 
1756 389 57 58 272 
1757 150 151 324 336 
1758 52 53 414 273 
1759 144 311 143 403 
1760 45 46 366 259 
1761 269 28 27 345 
1762 406 126 125 319 
1763 87 88 264 558 
1764 466 419 437 658 
1765 84 85 261 535 
1766 172 171 314 548 
1767 550 74 73 263 
1768 115 114 520 246 
1769 397 41 42 237 
1770 38 37 249 385 
1771 152 153 301 349 
1772 380 54 55 248 
1773 117 116 564 271 
1774 524 214 215 322 
1775 244 77 78 555 
1776 218 625 1 275 
1777 327 3 219 627 
1778 340 131 130 287 
1779 83 254 82 552 
1780 40 39 242 411 
1781 208 209 563 285 
1782 111 233 110 480 
1783 624 536 492 649 
1784 256 24 23 363 
1785 405 122 121 307 
1786 197 198 530 303 
1787 222 20 19 425 
1788 217 11 10 570 
1789 107 108 231 531 
1790 562 205 206 283 
1791 34 33 254 394 
1792 140 139 357 289 
1793 138 137 413 295 
1794 501 212 213 299 
1795 81 80 540 235 
1796 243 26 25 364 
1797 404 124 123 296 
1798 518 118 117 228 
1799 257 70 71 500 
1800 215 216 491 280 
1801 169 168 308 553 
1802 332 63 64 227 
1803 297 176 175 515 
1804 133 367 134 294 
1805 114 252 113 526 
1806 115 116 234 482 
1807 573 102 101 273 
1808 210 211 572 279 
1809 192 193 617 311 
1810 305 469 162 163 
1811 427 136 135 288 
1812 174 620 319 175 
1813 180 179 287 619 
1814 44 43 232 391 
1815 100 99 504 251 
1816 529 200 201 282 
1817 502 103 102 230 
1818 615 101 100 239 
1819 537 96 95 238 
1820 16 17 222 571 
1821 472 135 134 320 
1822 36 35 261 417 
1823 181 180 325 509 
1824 93 94 260 557 
1825 140 471 141 318 
1826 7 628 328 226 
1827 225 276 5 626 
1828 581 618 536 656 
1829 170 169 298 512 
1830 545 76 75 258 
1831 277 223 6 478 
1832 8 224 329 479 
1833 241 83 84 492 
1834 312 191 497 192 
1835 183 182 294 581 
1836 549 72 71 245 
1837 568 213 214 286 
1838 179 309 576 178 
1839 373 65 66 246 
1840 221 9 278 275 
1841 220 330 12 327 
1842 162 426 279 161 
1843 219 220 12 327 
1844 9 221 218 275 
1845 211 212 613 305 
1846 142 141 428 284 
1847 193 194 574 290 
1848 163 164 299 353 
1849 182 181 304 575 
1850 173 577 310 174 
1851 68 69 339 228 
1852 280 166 167 376 
1853 22 21 257 423 
1854 424 120 119 308 
1855 4 477 330 220 
1856 278 476 2 221 
1857 219 12 3 327 
1858 218 1 9 275 
1859 226 328 18 224 
1860 15 276 225 223 
1861 223 15 276 277 
1862 224 328 18 329 
1863 19 6 223 478 
1864 224 8 20 479 
1865 1 10 625 218 
1866 3 11 219 627 
1867 476 2 21 278 
1868 477 119 4 330 
1869 277 6 69 478 
1870 479 329 8 167 
1871 625 70 1 275 
1872 627 327 3 168 
1873 628 216 7 328 
1874 118 5 276 626 
1875 628 7 17 226 
1876 225 5 16 626 
1877 476 13 2 221 
1878 477 4 14 220 
1879 328 18 7 226 
1880 5 15 276 225 
1881 224 18 8 329 
1882 223 6 15 277 
1883 330 12 4 220 
1884 2 9 278 221 
1885 225 657 276 626 
1886 276 657 225 223 
1887 350 237 41 397 
1888 41 237 350 267 
1889 551 297 176 306 
1890 551 176 297 515 
1891 656 575 182 304 
1892 656 182 575 536 
1893 677 410 630 651 
1894 677 630 410 438 
1895 678 398 632 450 
1896 678 632 398 650 
$EndElements
